<svg width="785" height="717" viewBox="0 0 785 717" fill="none" xmlns="http://www.w3.org/2000/svg">
<path d="M342.634 59.3454C355.303 48.5517 361.648 43.1439 368.277 39.9821C375.842 36.3677 384.12 34.4917 392.503 34.4917C400.887 34.4917 409.165 36.3677 416.729 39.9821C423.358 43.1439 429.704 48.5517 442.373 59.3454C455.434 70.4663 468.692 76.0921 486.136 77.4658C502.73 78.796 511.038 79.472 517.973 81.9142C533.978 87.5836 546.581 100.165 552.229 116.193C554.671 123.105 555.347 131.413 556.677 148.029C558.051 165.473 563.655 178.709 574.776 191.771C585.592 204.44 590.999 210.785 594.161 217.414C601.488 232.743 601.488 250.558 594.161 265.866C590.999 272.495 585.592 278.84 574.798 291.509C564.001 303.64 557.616 319.06 556.677 335.273C555.347 351.867 554.671 360.175 552.229 367.109C549.433 375.015 544.904 382.195 538.973 388.122C533.041 394.05 525.858 398.575 517.951 401.366C511.038 403.808 502.73 404.484 486.115 405.814C468.67 407.188 455.434 412.792 442.373 423.912C429.704 434.728 423.358 440.136 416.729 443.298C409.165 446.912 400.887 448.788 392.503 448.788C384.12 448.788 375.842 446.912 368.277 443.298C361.648 440.136 355.303 434.728 342.634 423.934C330.504 413.137 315.083 406.752 298.87 405.814C282.276 404.484 273.968 403.808 267.034 401.366C259.128 398.57 251.948 394.04 246.021 388.109C240.093 382.178 235.568 374.995 232.778 367.087C230.335 360.175 229.659 351.867 228.329 335.251C227.394 319.048 221.017 303.636 210.231 291.509C199.415 278.84 194.007 272.495 190.824 265.866C187.213 258.3 185.34 250.021 185.344 241.637C185.348 233.254 187.228 224.977 190.846 217.414C194.007 210.785 199.415 204.44 210.209 191.771C221.548 178.447 226.977 165.102 228.329 148.007C229.659 131.413 230.335 123.105 232.778 116.171C235.573 108.265 240.103 101.085 246.034 95.1573C251.966 89.2297 259.148 84.7047 267.056 81.9142C273.968 79.472 282.276 78.796 298.892 77.4658C315.095 76.5304 330.507 70.1315 342.634 59.3454Z" stroke="white" stroke-width="32.7083" stroke-linecap="round" stroke-linejoin="round"/>
<path d="M476.512 244.749L476.154 258.712L456.461 259.428C453.597 276.137 448.942 289.623 442.498 299.887C436.292 310.151 425.789 321.25 410.99 333.185C396.191 345.12 378.408 355.026 357.642 362.903C337.114 371.018 319.928 375.076 306.084 375.076C292.239 375.076 281.737 372.212 274.576 366.483C267.415 360.993 263.835 353.713 263.835 344.642C263.835 330.798 271.95 316.954 288.182 303.11C304.652 289.027 324.463 277.331 347.617 268.021C371.009 258.474 394.162 252.029 417.077 248.687C413.496 242.72 408.006 237.827 400.607 234.008C393.446 230.188 381.153 225.892 363.728 221.118C354.181 218.492 349.407 214.196 349.407 208.228C349.407 204.648 350.839 201.426 353.703 198.561C356.806 195.458 361.819 191.878 368.741 187.82C375.902 183.524 382.585 179.227 388.791 174.931C395.236 170.395 402.278 165.025 409.916 158.819C417.793 152.613 424.357 146.168 429.608 139.484C434.859 132.801 437.485 126.953 437.485 121.94C437.485 113.586 433.308 109.409 424.954 109.409C418.509 109.409 409.677 112.512 398.459 118.718C387.479 124.685 376.618 132.443 365.877 141.991L350.481 190.684C339.74 224.818 327.805 251.313 314.677 270.17C301.787 289.027 289.494 298.455 277.798 298.455C265.386 298.455 259.18 290.817 259.18 275.54C259.18 260.264 266.58 240.81 281.379 217.18C296.178 193.31 316.706 168.844 342.962 143.781C342.962 143.542 343.559 141.394 344.752 137.336C346.184 133.04 347.497 128.743 348.691 124.447C352.748 111.557 355.852 103.322 358 99.7418L375.544 102.606C375.544 107.141 374.589 112.512 372.679 118.718C386.046 108.693 400.129 99.9805 414.928 92.581C429.966 84.9428 440.946 81.1236 447.868 81.1236C455.029 81.1236 460.758 83.3912 465.054 87.9264C469.351 92.2229 471.499 98.6677 471.499 107.261C471.499 115.615 467.441 125.282 459.326 136.262C451.449 147.242 441.543 157.148 429.608 165.98C407.887 182.211 389.388 193.907 374.112 201.068C398.936 204.887 417.077 210.019 428.534 216.463C439.991 222.67 448.346 232.098 453.597 244.749H476.512ZM302.503 252.984C319.212 226.011 330.311 198.323 335.801 169.918C322.912 184.001 311.216 200.113 300.713 218.254C290.211 236.394 284.959 249.523 284.959 257.638C284.959 262.651 286.63 265.157 289.972 265.157C293.552 265.157 297.729 261.099 302.503 252.984ZM385.569 329.605C397.265 321.728 406.574 312.896 413.496 303.11C420.418 293.323 423.879 284.133 423.879 275.54C423.879 271.483 423.283 267.425 422.089 263.367C386.285 267.663 356.806 277.092 333.653 291.652C310.5 305.974 298.923 319.699 298.923 332.827C298.923 338.556 301.19 343.091 305.726 346.433C310.261 350.013 316.467 351.803 324.344 351.803C343.678 351.803 364.086 344.404 385.569 329.605Z" fill="white"/>
<circle cx="501.285" cy="347.483" r="23.5206" fill="white"/>
<circle cx="774.71" cy="620.782" r="10.2903" fill="white"/>
<path d="M136.888 594.892L136.673 603.273L124.854 603.703C123.135 613.731 120.341 621.826 116.473 627.986C112.748 634.146 106.445 640.808 97.5624 647.971C88.6801 655.134 78.0069 661.08 65.543 665.807C53.2224 670.678 42.9074 673.114 34.5981 673.114C26.2888 673.114 19.9853 671.395 15.6873 667.956C11.3894 664.661 9.24049 660.292 9.24049 654.848C9.24049 646.538 14.1114 638.229 23.8534 629.92C33.7385 621.467 45.6294 614.447 59.526 608.86C73.5658 603.13 87.4623 599.262 101.216 597.256C99.0667 593.674 95.7716 590.737 91.3304 588.445C87.0325 586.153 79.6545 583.574 69.1962 580.709C63.4657 579.133 60.6004 576.554 60.6004 572.973C60.6004 570.824 61.46 568.89 63.1792 567.171C65.0416 565.308 68.0501 563.159 72.2048 560.724C76.5027 558.145 80.5141 555.566 84.2389 552.987C88.107 550.265 92.3333 547.042 96.9177 543.317C101.645 539.592 105.585 535.724 108.737 531.713C111.889 527.701 113.465 524.191 113.465 521.183C113.465 516.169 110.958 513.662 105.943 513.662C102.075 513.662 96.7745 515.524 90.0411 519.249C83.451 522.83 76.9325 527.487 70.4856 533.217L61.2451 562.443C54.7983 582.93 47.6351 598.832 39.7556 610.15C32.0194 621.467 24.6413 627.126 17.6214 627.126C10.1717 627.126 6.44685 622.542 6.44685 613.373C6.44685 604.204 10.888 592.528 19.7704 578.345C28.6527 564.019 40.9733 549.334 56.7323 534.292C56.7323 534.148 57.0905 532.859 57.8068 530.423C58.6664 527.845 59.4543 525.266 60.1706 522.687C62.6061 514.951 64.4686 510.008 65.7579 507.859L76.2878 509.579C76.2878 512.301 75.7147 515.524 74.5686 519.249C82.5914 513.232 91.0439 508.003 99.9263 503.562C108.952 498.977 115.542 496.685 119.697 496.685C123.995 496.685 127.433 498.046 130.012 500.768C132.59 503.347 133.88 507.215 133.88 512.372C133.88 517.386 131.444 523.189 126.573 529.779C121.846 536.369 115.9 542.314 108.737 547.615C95.7 557.357 84.5971 564.377 75.4282 568.675C90.3276 570.967 101.216 574.047 108.092 577.915C114.969 581.64 119.983 587.299 123.135 594.892H136.888ZM32.4492 599.835C42.4776 583.646 49.1394 567.027 52.4344 549.979C44.6982 558.431 37.6783 568.102 31.3747 578.99C25.0711 589.878 21.9193 597.757 21.9193 602.628C21.9193 605.637 22.9222 607.141 24.9278 607.141C27.0768 607.141 29.5839 604.706 32.4492 599.835ZM82.3048 645.822C89.3248 641.094 94.912 635.794 99.0667 629.92C103.221 624.046 105.299 618.53 105.299 613.373C105.299 610.938 104.94 608.502 104.224 606.067C82.7346 608.645 65.0416 614.304 51.145 623.043C37.2485 631.639 30.3002 639.877 30.3002 647.756C30.3002 651.195 31.6612 653.917 34.3832 655.922C37.1052 658.071 40.8301 659.146 45.5578 659.146C57.1621 659.146 69.4111 654.704 82.3048 645.822ZM206.727 569.964C210.452 576.124 212.315 582.93 212.315 590.379C212.315 601.984 208.303 612.37 200.281 621.539C192.258 630.565 182.802 635.077 171.914 635.077C163.605 635.077 157.087 632.714 152.359 627.986C147.775 623.115 145.482 616.453 145.482 608.001C145.482 594.391 150.783 582.213 161.385 571.468C171.986 560.58 183.877 555.136 197.057 555.136C199.493 555.136 201.212 555.208 202.215 555.351L202.859 562.443C191.398 562.443 181.871 565.738 174.278 572.328C166.685 578.918 162.889 587.371 162.889 597.686C162.889 603.846 164.393 608.86 167.402 612.728C170.41 616.453 174.78 618.316 180.51 618.316C186.384 618.316 191.04 615.737 194.478 610.579C197.917 605.422 199.636 599.405 199.636 592.528C199.636 585.508 198.275 579.133 195.553 573.402L206.727 569.964ZM277.87 569.964C281.594 576.124 283.457 582.93 283.457 590.379C283.457 601.984 279.445 612.37 271.423 621.539C263.4 630.565 253.945 635.077 243.056 635.077C234.747 635.077 228.229 632.714 223.501 627.986C218.917 623.115 216.624 616.453 216.624 608.001C216.624 594.391 221.925 582.213 232.527 571.468C243.128 560.58 255.019 555.136 268.199 555.136C270.635 555.136 272.354 555.208 273.357 555.351L274.001 562.443C262.54 562.443 253.013 565.738 245.42 572.328C237.827 578.918 234.031 587.371 234.031 597.686C234.031 603.846 235.535 608.86 238.544 612.728C241.552 616.453 245.922 618.316 251.652 618.316C257.526 618.316 262.182 615.737 265.62 610.579C269.059 605.422 270.778 599.405 270.778 592.528C270.778 585.508 269.417 579.133 266.695 573.402L277.87 569.964ZM374.584 611.869L379.956 616.596C371.647 630.206 362.836 637.011 353.524 637.011C347.794 637.011 341.92 632.785 335.903 624.333C329.886 615.88 326.877 608.932 326.877 603.488C326.877 600.049 332.035 596.611 342.35 593.173C346.218 591.883 349.728 589.949 352.88 587.371C356.175 584.649 357.822 581.855 357.822 578.99C357.822 576.124 357.034 573.976 355.458 572.543C353.883 570.967 351.877 570.179 349.441 570.179C333.682 571.612 317.207 592.815 300.015 633.788L286.907 629.275C286.907 623.115 295.216 598.187 311.835 554.492C328.597 510.796 340.487 484.364 347.507 475.195L358.037 479.064C338.697 512.73 322.508 551.841 309.471 596.396C320.645 579.634 330.244 568.46 338.267 562.873C346.29 557.285 353.954 554.492 361.261 554.492C365.702 554.492 369.212 555.853 371.79 558.575C374.512 561.297 375.873 564.807 375.873 569.105C375.873 573.259 374.799 577.056 372.65 580.494C370.644 583.932 367.707 586.941 363.839 589.52C358.252 593.244 351.375 596.898 343.209 600.479C344.499 607.213 346.719 612.299 349.871 615.737C353.023 619.175 356.605 620.894 360.616 620.894C362.765 620.894 367.421 617.886 374.584 611.869ZM445.311 608.43L450.254 612.299C445.813 618.459 439.724 623.616 431.988 627.771C424.252 631.782 416.73 633.788 409.424 633.788C402.118 633.788 396.244 631.639 391.803 627.341C387.361 623.043 385.141 617.384 385.141 610.364C385.141 597.184 392.089 584.219 405.986 571.468C420.025 558.718 434.209 552.343 448.535 552.343C457.99 552.343 462.718 556.068 462.718 563.517C462.718 571.254 457.704 579.061 447.675 586.941C437.79 594.82 423.822 601.984 405.771 608.43C407.06 611.725 409.066 614.304 411.788 616.167C414.51 618.029 417.303 618.96 420.169 618.96C426.329 618.96 434.71 615.45 445.311 608.43ZM404.696 601.984C416.301 597.972 426.257 592.958 434.567 586.941C442.876 580.924 447.031 575.408 447.031 570.394C447.031 568.532 446.314 566.884 444.882 565.451C443.449 564.019 441.801 563.302 439.939 563.302C433.206 563.302 425.899 567.529 418.02 575.981C410.284 584.291 405.842 592.958 404.696 601.984ZM527.156 557.715C530.738 557.715 533.675 558.933 535.967 561.368C538.259 563.804 539.405 566.956 539.405 570.824C539.405 578.56 534.964 586.726 526.082 595.322L520.924 591.239C522.93 586.798 523.933 583.574 523.933 581.568C523.933 577.7 521.784 575.766 517.486 575.766C513.188 575.766 509.105 578.488 505.237 583.932C501.369 589.376 496.784 597.829 491.484 609.29C486.326 620.608 482.386 628.631 479.664 633.358L467.415 627.986C475.295 610.078 479.808 599.548 480.954 596.396C484.822 585.222 486.756 571.039 486.756 553.847L498.79 550.624C498.36 559.936 497.716 567.171 496.856 572.328C495.996 577.342 493.919 585.58 490.624 597.041C505.094 570.824 517.271 557.715 527.156 557.715ZM587.213 542.672C579.19 542.672 575.179 539.449 575.179 533.002C575.179 529.421 576.182 526.412 578.187 523.977C580.193 521.541 582.772 520.323 585.923 520.323C589.075 520.323 591.654 521.255 593.66 523.117C595.665 524.979 596.668 527.415 596.668 530.423C596.668 533.432 595.809 536.226 594.089 538.804C592.37 541.383 590.078 542.672 587.213 542.672ZM584.419 606.067L588.717 609.72C585.279 616.31 580.694 621.969 574.964 626.696C569.376 631.281 564.291 633.573 559.706 633.573C551.683 633.573 547.672 627.986 547.672 616.811C547.672 602.915 553.403 584.792 564.864 562.443C567.442 557.572 568.947 554.707 569.376 553.847L578.617 559.434C575.608 564.878 571.884 573.546 567.442 585.437C563.145 597.327 560.996 604.992 560.996 608.43C560.996 611.725 561.712 614.089 563.145 615.522C564.577 616.955 566.296 617.671 568.302 617.671C572.17 617.671 577.543 613.803 584.419 606.067ZM646.863 549.334L639.986 575.337L667.923 572.113L661.691 582.213L637.622 585.437C635.76 593.173 632.608 604.849 628.167 620.465C618.568 654.275 613.769 675.693 613.769 684.718L600.016 691.81C600.016 679.489 605.317 655.707 615.918 620.465C621.362 602.843 624.729 591.525 626.018 586.511C621.004 587.8 616.419 588.445 612.265 588.445C604.099 588.445 600.016 585.222 600.016 578.775C600.016 575.193 602.738 570.895 608.182 565.881C616.061 558.575 625.445 552.128 636.333 546.541C644.786 517.745 650.874 499.693 654.599 492.387C659.613 482.502 664.198 476.198 668.352 473.476C674.513 469.608 680.888 467.674 687.478 467.674C694.068 467.674 698.724 469.536 701.446 473.261C704.168 476.986 705.386 481.356 705.1 486.37C704.383 504.421 684.971 525.409 646.863 549.334ZM681.246 485.94C673.223 485.94 667.278 489.808 663.41 497.544C660.401 503.562 657.751 510.796 655.459 519.249C653.167 527.701 651.519 533.504 650.516 536.655C658.396 531.784 666.848 525.194 675.874 516.885C684.899 508.576 689.555 501.341 689.842 495.181C690.129 489.02 687.263 485.94 681.246 485.94ZM629.027 576.411L633.754 557.5C628.31 559.792 624.012 562.156 620.861 564.592C617.852 567.027 616.348 569.105 616.348 570.824C616.348 574.549 620.574 576.411 629.027 576.411ZM762.438 620.25L763.083 625.837C762.51 626.267 755.848 628.845 743.097 633.573C741.378 643.029 739.158 652.341 736.436 661.51C733.857 670.822 731.207 677.842 728.485 682.569C725.906 687.44 722.826 692.24 719.244 696.967C712.081 706.423 702.411 711.15 690.233 711.15C684.216 711.15 679.417 709.288 675.835 705.563C672.254 701.838 670.463 696.752 670.463 690.305C670.463 665.521 691.236 645.607 732.782 630.565L744.387 589.735C732.066 608.215 720.963 619.605 711.078 623.903C706.207 626.195 701.05 627.341 695.606 627.341C690.305 627.341 686.007 625.622 682.712 622.184C679.56 618.745 677.984 613.731 677.984 607.141C677.984 600.551 680.205 591.382 684.646 579.634C689.23 567.744 694.316 557.787 699.903 549.764L710.433 554.277C710.004 554.707 707.998 558.503 704.416 565.666C698.113 578.703 694.961 588.374 694.961 594.677C694.961 600.981 696.179 605.207 698.614 607.356C701.05 609.505 704.631 610.579 709.359 610.579C714.087 610.579 719.387 607.786 725.261 602.198C731.278 596.468 740.519 585.222 752.983 568.46L760.719 572.973C759.573 577.7 756.994 586.296 752.983 598.76C749.114 611.081 746.464 620.536 745.031 627.126L762.438 620.25ZM731.493 637.011C722.467 641.166 714.516 645.894 707.64 651.195C694.746 660.936 688.299 670.392 688.299 679.561C688.299 682.999 689.302 685.793 691.308 687.942C693.313 690.091 695.82 691.165 698.829 691.165C713.155 691.165 724.043 673.114 731.493 637.011Z" fill="white"/>
</svg>
