<svg width="2041" height="685" viewBox="0 0 2041 685" fill="none" xmlns="http://www.w3.org/2000/svg">
<path d="M671.889 363.194L671.531 377.158L651.839 377.874C648.974 394.583 644.32 408.069 637.875 418.333C631.669 428.597 621.166 439.696 606.367 451.631C591.568 463.565 573.786 473.471 553.019 481.348C532.491 489.464 515.305 493.522 501.461 493.522C487.617 493.522 477.114 490.657 469.953 484.929C462.793 479.439 459.212 472.158 459.212 463.088C459.212 449.244 467.328 435.4 483.559 421.555C500.029 407.472 519.841 395.776 542.994 386.467C566.386 376.919 589.539 370.475 612.454 367.133C608.874 361.166 603.384 356.272 595.984 352.453C588.823 348.634 576.531 344.338 559.106 339.564C549.558 336.938 544.784 332.642 544.784 326.674C544.784 323.094 546.216 319.871 549.081 317.007C552.184 313.904 557.196 310.324 564.118 306.266C571.279 301.969 577.963 297.673 584.169 293.376C590.614 288.841 597.655 283.47 605.293 277.264C613.17 271.058 619.734 264.614 624.986 257.93C630.237 251.247 632.862 245.399 632.862 240.386C632.862 232.032 628.685 227.855 620.331 227.855C613.886 227.855 605.055 230.958 593.836 237.164C582.856 243.131 571.995 250.889 561.254 260.436L545.858 309.13C535.117 343.263 523.182 369.759 510.054 388.615C497.165 407.472 484.872 416.901 473.176 416.901C460.764 416.901 454.558 409.262 454.558 393.986C454.558 378.71 461.957 359.256 476.756 335.625C491.555 311.756 512.083 287.29 538.339 262.227C538.339 261.988 538.936 259.84 540.13 255.782C541.562 251.485 542.875 247.189 544.068 242.892C548.126 230.003 551.229 221.768 553.377 218.187L570.921 221.052C570.921 225.587 569.966 230.958 568.057 237.164C581.424 227.139 595.507 218.426 610.306 211.027C625.344 203.388 636.324 199.569 643.246 199.569C650.407 199.569 656.135 201.837 660.432 206.372C664.728 210.669 666.876 217.113 666.876 225.706C666.876 234.061 662.819 243.728 654.703 254.708C646.826 265.688 636.92 275.594 624.986 284.425C603.264 300.656 584.766 312.352 569.489 319.513C594.313 323.332 612.454 328.464 623.911 334.909C635.369 341.115 643.723 350.544 648.974 363.194H671.889ZM497.881 371.429C514.589 344.457 525.689 316.768 531.179 288.364C518.289 302.447 506.593 318.559 496.091 336.699C485.588 354.84 480.337 367.968 480.337 376.084C480.337 381.097 482.008 383.603 485.349 383.603C488.93 383.603 493.107 379.545 497.881 371.429ZM580.946 448.05C592.642 440.173 601.952 431.342 608.874 421.555C615.796 411.769 619.257 402.579 619.257 393.986C619.257 389.928 618.66 385.87 617.467 381.813C581.663 386.109 552.184 395.538 529.03 410.098C505.877 424.42 494.3 438.145 494.3 451.273C494.3 457.001 496.568 461.537 501.103 464.878C505.638 468.459 511.844 470.249 519.721 470.249C539.056 470.249 559.464 462.849 580.946 448.05Z" fill="white"/>
<circle cx="696.663" cy="465.929" r="23.5206" fill="white"/>
<path d="M533.571 177.629C545.875 166.865 552.038 161.472 558.475 158.319C565.822 154.715 573.861 152.844 582.003 152.844C590.145 152.844 598.184 154.715 605.531 158.319C611.968 161.472 618.131 166.865 630.435 177.629C643.119 188.72 655.995 194.33 672.937 195.7C689.052 197.026 697.121 197.7 703.855 200.136C719.399 205.79 731.639 218.337 737.124 234.32C739.496 241.213 740.152 249.498 741.444 266.068C742.778 283.465 748.22 296.664 759.021 309.69C769.524 322.324 774.776 328.652 777.847 335.263C784.962 350.55 784.962 368.316 777.847 383.581C774.776 390.192 769.524 396.52 759.042 409.154C748.556 421.251 742.355 436.629 741.444 452.797C740.152 469.346 739.496 477.631 737.124 484.546C734.409 492.43 730.01 499.59 724.249 505.501C718.489 511.413 711.513 515.925 703.834 518.708C697.121 521.144 689.052 521.818 672.915 523.144C655.974 524.514 643.119 530.103 630.435 541.193C618.131 551.979 611.968 557.372 605.531 560.525C598.184 564.129 590.145 566 582.003 566C573.861 566 565.822 564.129 558.475 560.525C552.038 557.372 545.875 551.979 533.571 541.215C521.791 530.447 506.815 524.08 491.069 523.144C474.954 521.818 466.885 521.144 460.151 518.708C452.473 515.92 445.5 511.403 439.744 505.488C433.987 499.573 429.592 492.41 426.882 484.524C424.51 477.631 423.854 469.346 422.562 452.776C421.654 436.618 415.461 421.247 404.985 409.154C394.482 396.52 389.23 390.192 386.138 383.581C382.631 376.036 380.813 367.78 380.816 359.42C380.82 351.059 382.646 342.805 386.159 335.263C389.23 328.652 394.482 322.324 404.964 309.69C415.976 296.403 421.249 283.095 422.562 266.047C423.854 249.498 424.51 241.213 426.882 234.298C429.597 226.414 433.996 219.254 439.757 213.343C445.517 207.431 452.493 202.919 460.172 200.136C466.885 197.7 474.954 197.026 491.091 195.7C506.826 194.767 521.794 188.386 533.571 177.629Z" stroke="white" stroke-width="32.7083" stroke-linecap="round" stroke-linejoin="round"/>
<path d="M1017.57 354.604L1017.36 362.985L1005.54 363.415C1003.82 373.443 1001.02 381.538 997.157 387.698C993.432 393.858 987.128 400.52 978.246 407.683C969.364 414.846 958.691 420.792 946.227 425.519C933.906 430.39 923.591 432.826 915.282 432.826C906.972 432.826 900.669 431.107 896.371 427.668C892.073 424.373 889.924 420.004 889.924 414.56C889.924 406.25 894.795 397.941 904.537 389.632C914.422 381.179 926.313 374.159 940.21 368.572C954.249 362.842 968.146 358.974 981.899 356.968C979.75 353.386 976.455 350.449 972.014 348.157C967.716 345.865 960.338 343.286 949.88 340.421C944.149 338.845 941.284 336.266 941.284 332.685C941.284 330.536 942.144 328.602 943.863 326.883C945.725 325.02 948.734 322.871 952.888 320.436C957.186 317.857 961.198 315.278 964.922 312.699C968.791 309.977 973.017 306.754 977.601 303.029C982.329 299.304 986.269 295.436 989.421 291.425C992.572 287.413 994.148 283.903 994.148 280.895C994.148 275.881 991.641 273.374 986.627 273.374C982.759 273.374 977.458 275.236 970.725 278.961C964.135 282.542 957.616 287.199 951.169 292.929L941.929 322.155C935.482 342.641 928.319 358.544 920.439 369.862C912.703 381.179 905.325 386.838 898.305 386.838C890.855 386.838 887.13 382.254 887.13 373.085C887.13 363.916 891.572 352.24 900.454 338.057C909.336 323.731 921.657 309.046 937.416 294.004C937.416 293.86 937.774 292.571 938.49 290.135C939.35 287.557 940.138 284.978 940.854 282.399C943.29 274.663 945.152 269.72 946.442 267.571L956.971 269.291C956.971 272.013 956.398 275.236 955.252 278.961C963.275 272.944 971.728 267.715 980.61 263.274C989.635 258.689 996.226 256.397 1000.38 256.397C1004.68 256.397 1008.12 257.758 1010.7 260.48C1013.27 263.059 1014.56 266.927 1014.56 272.084C1014.56 277.098 1012.13 282.901 1007.26 289.491C1002.53 296.081 996.584 302.026 989.421 307.327C976.384 317.069 965.281 324.089 956.112 328.387C971.011 330.679 981.899 333.759 988.776 337.627C995.653 341.352 1000.67 347.011 1003.82 354.604H1017.57ZM913.133 359.547C923.161 343.358 929.823 326.739 933.118 309.691C925.382 318.143 918.362 327.814 912.058 338.702C905.755 349.59 902.603 357.469 902.603 362.34C902.603 365.349 903.606 366.853 905.611 366.853C907.76 366.853 910.267 364.418 913.133 359.547ZM962.988 405.534C970.008 400.806 975.596 395.506 979.75 389.632C983.905 383.758 985.982 378.242 985.982 373.085C985.982 370.649 985.624 368.214 984.908 365.779C963.418 368.357 945.725 374.016 931.829 382.755C917.932 391.351 910.984 399.589 910.984 407.468C910.984 410.907 912.345 413.629 915.067 415.634C917.789 417.783 921.514 418.858 926.241 418.858C937.846 418.858 950.095 414.416 962.988 405.534ZM1087.41 329.676C1091.14 335.836 1093 342.641 1093 350.091C1093 361.696 1088.99 372.082 1080.96 381.251C1072.94 390.277 1063.49 394.789 1052.6 394.789C1044.29 394.789 1037.77 392.426 1033.04 387.698C1028.46 382.827 1026.17 376.165 1026.17 367.713C1026.17 354.103 1031.47 341.925 1042.07 331.18C1052.67 320.292 1064.56 314.848 1077.74 314.848C1080.18 314.848 1081.9 314.92 1082.9 315.063L1083.54 322.155C1072.08 322.155 1062.55 325.45 1054.96 332.04C1047.37 338.63 1043.57 347.083 1043.57 357.398C1043.57 363.558 1045.08 368.572 1048.09 372.44C1051.09 376.165 1055.46 378.028 1061.19 378.028C1067.07 378.028 1071.72 375.449 1075.16 370.291C1078.6 365.134 1080.32 359.117 1080.32 352.24C1080.32 345.22 1078.96 338.845 1076.24 333.114L1087.41 329.676ZM1158.55 329.676C1162.28 335.836 1164.14 342.641 1164.14 350.091C1164.14 361.696 1160.13 372.082 1152.11 381.251C1144.08 390.277 1134.63 394.789 1123.74 394.789C1115.43 394.789 1108.91 392.426 1104.18 387.698C1099.6 382.827 1097.31 376.165 1097.31 367.713C1097.31 354.103 1102.61 341.925 1113.21 331.18C1123.81 320.292 1135.7 314.848 1148.88 314.848C1151.32 314.848 1153.04 314.92 1154.04 315.063L1154.68 322.155C1143.22 322.155 1133.7 325.45 1126.1 332.04C1118.51 338.63 1114.71 347.083 1114.71 357.398C1114.71 363.558 1116.22 368.572 1119.23 372.44C1122.24 376.165 1126.61 378.028 1132.34 378.028C1138.21 378.028 1142.87 375.449 1146.3 370.291C1149.74 365.134 1151.46 359.117 1151.46 352.24C1151.46 345.22 1150.1 338.845 1147.38 333.114L1158.55 329.676ZM1255.27 371.581L1260.64 376.308C1252.33 389.918 1243.52 396.723 1234.21 396.723C1228.48 396.723 1222.6 392.497 1216.59 384.045C1210.57 375.592 1207.56 368.644 1207.56 363.2C1207.56 359.761 1212.72 356.323 1223.03 352.885C1226.9 351.595 1230.41 349.661 1233.56 347.083C1236.86 344.361 1238.51 341.567 1238.51 338.702C1238.51 335.836 1237.72 333.688 1236.14 332.255C1234.57 330.679 1232.56 329.891 1230.12 329.891C1214.37 331.324 1197.89 352.527 1180.7 393.5L1167.59 388.987C1167.59 382.827 1175.9 357.899 1192.52 314.204C1209.28 270.508 1221.17 244.076 1228.19 234.907L1238.72 238.775C1219.38 272.442 1203.19 311.553 1190.15 356.108C1201.33 339.346 1210.93 328.172 1218.95 322.585C1226.97 316.997 1234.64 314.204 1241.94 314.204C1246.39 314.204 1249.9 315.565 1252.47 318.287C1255.2 321.009 1256.56 324.519 1256.56 328.817C1256.56 332.971 1255.48 336.768 1253.33 340.206C1251.33 343.644 1248.39 346.653 1244.52 349.232C1238.94 352.956 1232.06 356.61 1223.89 360.191C1225.18 366.925 1227.4 372.01 1230.55 375.449C1233.71 378.887 1237.29 380.606 1241.3 380.606C1243.45 380.606 1248.1 377.598 1255.27 371.581ZM1326 368.142L1330.94 372.01C1326.5 378.171 1320.41 383.328 1312.67 387.483C1304.94 391.494 1297.41 393.5 1290.11 393.5C1282.8 393.5 1276.93 391.351 1272.49 387.053C1268.04 382.755 1265.82 377.096 1265.82 370.076C1265.82 356.896 1272.77 343.931 1286.67 331.18C1300.71 318.43 1314.89 312.055 1329.22 312.055C1338.67 312.055 1343.4 315.78 1343.4 323.229C1343.4 330.966 1338.39 338.773 1328.36 346.653C1318.47 354.532 1304.51 361.696 1286.45 368.142C1287.74 371.437 1289.75 374.016 1292.47 375.879C1295.19 377.741 1297.99 378.672 1300.85 378.672C1307.01 378.672 1315.39 375.162 1326 368.142ZM1285.38 361.696C1296.98 357.684 1306.94 352.67 1315.25 346.653C1323.56 340.636 1327.71 335.12 1327.71 330.106C1327.71 328.243 1327 326.596 1325.57 325.163C1324.13 323.731 1322.49 323.014 1320.62 323.014C1313.89 323.014 1306.58 327.241 1298.7 335.693C1290.97 344.002 1286.53 352.67 1285.38 361.696ZM1407.84 317.427C1411.42 317.427 1414.36 318.645 1416.65 321.08C1418.94 323.516 1420.09 326.668 1420.09 330.536C1420.09 338.272 1415.65 346.438 1406.77 355.034L1401.61 350.951C1403.61 346.51 1404.62 343.286 1404.62 341.28C1404.62 337.412 1402.47 335.478 1398.17 335.478C1393.87 335.478 1389.79 338.2 1385.92 343.644C1382.05 349.088 1377.47 357.541 1372.17 369.002C1367.01 380.32 1363.07 388.343 1360.35 393.07L1348.1 387.698C1355.98 369.79 1360.49 359.26 1361.64 356.108C1365.51 344.934 1367.44 330.751 1367.44 313.559L1379.47 310.336C1379.04 319.648 1378.4 326.882 1377.54 332.04C1376.68 337.054 1374.6 345.292 1371.31 356.753C1385.78 330.536 1397.95 317.427 1407.84 317.427ZM1467.9 302.384C1459.87 302.384 1455.86 299.161 1455.86 292.714C1455.86 289.133 1456.87 286.124 1458.87 283.689C1460.88 281.253 1463.46 280.035 1466.61 280.035C1469.76 280.035 1472.34 280.967 1474.34 282.829C1476.35 284.691 1477.35 287.127 1477.35 290.135C1477.35 293.144 1476.49 295.938 1474.77 298.516C1473.05 301.095 1470.76 302.384 1467.9 302.384ZM1465.1 365.779L1469.4 369.432C1465.96 376.022 1461.38 381.681 1455.65 386.408C1450.06 390.993 1444.97 393.285 1440.39 393.285C1432.37 393.285 1428.36 387.698 1428.36 376.523C1428.36 362.627 1434.09 344.504 1445.55 322.155C1448.13 317.284 1449.63 314.419 1450.06 313.559L1459.3 319.146C1456.29 324.59 1452.57 333.258 1448.13 345.149C1443.83 357.039 1441.68 364.704 1441.68 368.142C1441.68 371.437 1442.4 373.801 1443.83 375.234C1445.26 376.667 1446.98 377.383 1448.99 377.383C1452.85 377.383 1458.23 373.515 1465.1 365.779ZM1527.55 309.046L1520.67 335.049L1548.61 331.825L1542.37 341.925L1518.31 345.149C1516.44 352.885 1513.29 364.561 1508.85 380.176C1499.25 413.987 1494.45 435.405 1494.45 444.43L1480.7 451.522C1480.7 439.201 1486 415.419 1496.6 380.176C1502.05 362.555 1505.41 351.237 1506.7 346.223C1501.69 347.512 1497.1 348.157 1492.95 348.157C1484.78 348.157 1480.7 344.934 1480.7 338.487C1480.7 334.905 1483.42 330.607 1488.87 325.593C1496.74 318.287 1506.13 311.84 1517.02 306.253C1525.47 277.457 1531.56 259.405 1535.28 252.099C1540.3 242.214 1544.88 235.91 1549.04 233.188C1555.2 229.32 1561.57 227.386 1568.16 227.386C1574.75 227.386 1579.41 229.248 1582.13 232.973C1584.85 236.698 1586.07 241.068 1585.78 246.082C1585.07 264.133 1565.65 285.121 1527.55 309.046ZM1561.93 245.652C1553.91 245.652 1547.96 249.52 1544.09 257.256C1541.08 263.274 1538.43 270.508 1536.14 278.961C1533.85 287.413 1532.2 293.216 1531.2 296.367C1539.08 291.496 1547.53 284.906 1556.56 276.597C1565.58 268.288 1570.24 261.053 1570.53 254.893C1570.81 248.732 1567.95 245.652 1561.93 245.652ZM1509.71 336.123L1514.44 317.212C1508.99 319.504 1504.7 321.868 1501.54 324.304C1498.54 326.739 1497.03 328.817 1497.03 330.536C1497.03 334.261 1501.26 336.123 1509.71 336.123ZM1643.12 379.962L1643.77 385.549C1643.19 385.979 1636.53 388.557 1623.78 393.285C1622.06 402.74 1619.84 412.053 1617.12 421.221C1614.54 430.534 1611.89 437.554 1609.17 442.281C1606.59 447.152 1603.51 451.951 1599.93 456.679C1592.76 466.135 1583.09 470.862 1570.92 470.862C1564.9 470.862 1560.1 469 1556.52 465.275C1552.94 461.55 1551.15 456.464 1551.15 450.017C1551.15 425.233 1571.92 405.319 1613.47 390.277L1625.07 349.446C1612.75 367.927 1601.65 379.317 1591.76 383.615C1586.89 385.907 1581.73 387.053 1576.29 387.053C1570.99 387.053 1566.69 385.334 1563.4 381.896C1560.24 378.457 1558.67 373.443 1558.67 366.853C1558.67 360.263 1560.89 351.094 1565.33 339.346C1569.91 327.456 1575 317.499 1580.59 309.476L1591.12 313.989C1590.69 314.419 1588.68 318.215 1585.1 325.378C1578.8 338.415 1575.64 348.085 1575.64 354.389C1575.64 360.693 1576.86 364.919 1579.3 367.068C1581.73 369.217 1585.31 370.291 1590.04 370.291C1594.77 370.291 1600.07 367.498 1605.94 361.91C1611.96 356.18 1621.2 344.934 1633.67 328.172L1641.4 332.685C1640.26 337.412 1637.68 346.008 1633.67 358.472C1629.8 370.793 1627.15 380.248 1625.72 386.838L1643.12 379.962ZM1612.18 396.723C1603.15 400.878 1595.2 405.606 1588.32 410.907C1575.43 420.648 1568.98 430.104 1568.98 439.273C1568.98 442.711 1569.99 445.505 1571.99 447.654C1574 449.803 1576.5 450.877 1579.51 450.877C1593.84 450.877 1604.73 432.826 1612.18 396.723Z" fill="white"/>
</svg>
