<svg width="157" height="44" viewBox="0 0 157 44" fill="none" xmlns="http://www.w3.org/2000/svg">
<path d="M29.9943 22.8563L29.9603 24.1801L28.0935 24.248C27.8219 25.832 27.3807 27.1105 26.7697 28.0835C26.1814 29.0566 25.1857 30.1088 23.7827 31.2402C22.3798 32.3717 20.6939 33.3108 18.7252 34.0575C16.7792 34.8269 15.1499 35.2116 13.8375 35.2116C12.525 35.2116 11.5293 34.94 10.8505 34.3969C10.1716 33.8765 9.83219 33.1863 9.83219 32.3264C9.83219 31.0139 10.6016 29.7015 12.1403 28.389C13.7017 27.0539 15.5799 25.9451 17.7748 25.0626C19.9924 24.1575 22.1874 23.5465 24.3598 23.2297C24.0203 22.664 23.4999 22.2001 22.7984 21.838C22.1195 21.476 20.9541 21.0687 19.3023 20.6161C18.3971 20.3672 17.9445 19.9599 17.9445 19.3942C17.9445 19.0547 18.0803 18.7492 18.3519 18.4777C18.646 18.1835 19.1212 17.8441 19.7775 17.4594C20.4563 17.0521 21.0899 16.6448 21.6783 16.2375C22.2892 15.8075 22.9568 15.2984 23.6809 14.71C24.4276 14.1217 25.0499 13.5107 25.5478 12.8771C26.0456 12.2435 26.2945 11.6891 26.2945 11.2139C26.2945 10.4219 25.8985 10.0259 25.1065 10.0259C24.4955 10.0259 23.6583 10.3201 22.5947 10.9084C21.5538 11.4741 20.5242 12.2096 19.5059 13.1147L18.0464 17.731C17.0281 20.9668 15.8967 23.4786 14.6521 25.2663C13.4301 27.0539 12.2648 27.9478 11.156 27.9478C9.97927 27.9478 9.39093 27.2237 9.39093 25.7754C9.39093 24.3272 10.0924 22.483 11.4954 20.2427C12.8984 17.9799 14.8444 15.6604 17.3336 13.2844C17.3336 13.2618 17.3901 13.0581 17.5033 12.6735C17.6391 12.2661 17.7635 11.8588 17.8767 11.4515C18.2613 10.2296 18.5555 9.44889 18.7592 9.10946L20.4224 9.381C20.4224 9.81095 20.3319 10.3201 20.1508 10.9084C21.418 9.95803 22.7531 9.13209 24.1561 8.4306C25.5817 7.70649 26.6226 7.34443 27.2788 7.34443C27.9577 7.34443 28.5008 7.5594 28.9081 7.98934C29.3154 8.39666 29.5191 9.00763 29.5191 9.82226C29.5191 10.6143 29.1344 11.5307 28.365 12.5716C27.6183 13.6126 26.6792 14.5516 25.5478 15.3889C23.4886 16.9276 21.7348 18.0364 20.2866 18.7153C22.64 19.0774 24.3598 19.5639 25.4459 20.1748C26.5321 20.7632 27.3241 21.657 27.8219 22.8563H29.9943ZM13.498 23.637C15.082 21.08 16.1343 18.4551 16.6547 15.7623C15.4328 17.0974 14.324 18.6248 13.3283 20.3446C12.3326 22.0643 11.8348 23.3089 11.8348 24.0783C11.8348 24.5535 11.9932 24.7911 12.31 24.7911C12.6494 24.7911 13.0455 24.4064 13.498 23.637ZM21.3728 30.9008C22.4816 30.1541 23.3641 29.3168 24.0203 28.389C24.6766 27.4613 25.0047 26.5901 25.0047 25.7754C25.0047 25.3907 24.9481 25.0061 24.835 24.6214C21.4407 25.0287 18.646 25.9225 16.4511 27.3029C14.2561 28.6606 13.1586 29.9617 13.1586 31.2063C13.1586 31.7494 13.3736 32.1793 13.8035 32.4961C14.2335 32.8356 14.8218 33.0053 15.5685 33.0053C17.4015 33.0053 19.3362 32.3038 21.3728 30.9008Z" fill="black"/>
<circle cx="32.3428" cy="32.8894" r="2.22979" fill="black"/>
<path d="M16.8815 5.50879C18.0479 4.49741 18.6322 3.99069 19.2425 3.69443C19.9389 3.35575 20.701 3.17997 21.4729 3.17997C22.2448 3.17997 23.0069 3.35575 23.7034 3.69443C24.3137 3.99069 24.8979 4.49741 26.0643 5.50879C27.2668 6.55083 28.4875 7.07797 30.0935 7.2067C31.6213 7.33133 32.3862 7.39467 33.0246 7.62351C34.4982 8.15474 35.6586 9.33367 36.1786 10.8354C36.4034 11.4831 36.4657 12.2616 36.5881 13.8185C36.7146 15.4531 37.2306 16.6933 38.2544 17.9172C39.2502 19.1043 39.7481 19.6988 40.0392 20.32C40.7137 21.7564 40.7137 23.4257 40.0392 24.86C39.7481 25.4811 39.2502 26.0757 38.2564 27.2628C37.2624 28.3994 36.6745 29.8444 36.5881 31.3635C36.4657 32.9184 36.4034 33.6968 36.1786 34.3466C35.9212 35.0874 35.5042 35.7601 34.9581 36.3156C34.412 36.871 33.7507 37.295 33.0226 37.5565C32.3862 37.7853 31.6213 37.8486 30.0915 37.9733C28.4855 38.102 27.2668 38.6271 26.0643 39.6691C24.8979 40.6826 24.3137 41.1893 23.7034 41.4855C23.0069 41.8242 22.2448 42 21.4729 42C20.701 42 19.9389 41.8242 19.2425 41.4855C18.6322 41.1893 18.0479 40.6826 16.8815 39.6712C15.7647 38.6595 14.3449 38.0612 12.8523 37.9733C11.3245 37.8486 10.5596 37.7853 9.92118 37.5565C9.1933 37.2945 8.53226 36.8701 7.98651 36.3143C7.44077 35.7585 7.02416 35.0855 6.76724 34.3445C6.54239 33.6968 6.48015 32.9184 6.35769 31.3615C6.27157 29.8433 5.68444 28.3991 4.69138 27.2628C3.69561 26.0757 3.19773 25.4811 2.90462 24.86C2.57216 24.151 2.39978 23.3753 2.40013 22.5898C2.40048 21.8042 2.57354 21.0286 2.90663 20.32C3.19773 19.6988 3.69561 19.1043 4.68938 17.9172C5.73333 16.6688 6.23322 15.4183 6.35769 13.8165C6.48015 12.2616 6.54239 11.4831 6.76724 10.8334C7.02463 10.0926 7.44165 9.41983 7.98774 8.8644C8.53383 8.30898 9.19515 7.88499 9.92319 7.62351C10.5596 7.39467 11.3245 7.33133 12.8543 7.2067C14.346 7.11905 15.765 6.51946 16.8815 5.50879Z" stroke="black" stroke-width="3.1008" stroke-linecap="round" stroke-linejoin="round"/>
<path d="M66.1257 22.4518L66.0951 23.6473L64.4092 23.7086C64.1639 25.1391 63.7655 26.2937 63.2137 27.1724C62.6824 28.0511 61.7832 29.0013 60.5163 30.0231C59.2493 31.0448 57.7268 31.8929 55.949 32.5673C54.1916 33.2621 52.7202 33.6095 51.535 33.6095C50.3497 33.6095 49.4506 33.3642 48.8375 32.8738C48.2245 32.4038 47.9179 31.7805 47.9179 31.004C47.9179 29.8187 48.6127 28.6335 50.0023 27.4482C51.4124 26.2426 53.1085 25.2412 55.0907 24.4443C57.0934 23.6269 59.0756 23.0751 61.0374 22.789C60.7308 22.2781 60.2608 21.8592 59.6273 21.5323C59.0143 21.2053 57.9619 20.8375 56.4701 20.4288C55.6527 20.204 55.244 19.8361 55.244 19.3252C55.244 19.0187 55.3666 18.7428 55.6118 18.4976C55.8775 18.232 56.3066 17.9254 56.8992 17.578C57.5123 17.2102 58.0845 16.8424 58.6158 16.4745C59.1675 16.0863 59.7704 15.6265 60.4243 15.0952C61.0987 14.5638 61.6606 14.0121 62.1102 13.4399C62.5598 12.8677 62.7846 12.3671 62.7846 11.9379C62.7846 11.2227 62.4269 10.8651 61.7117 10.8651C61.16 10.8651 60.4039 11.1307 59.4434 11.662C58.5034 12.1729 57.5736 12.8371 56.654 13.6545L55.3359 17.8233C54.4163 20.7455 53.3946 23.0138 52.2706 24.6282C51.1671 26.2426 50.1147 27.0498 49.1134 27.0498C48.0508 27.0498 47.5195 26.3958 47.5195 25.088C47.5195 23.7801 48.1529 22.1147 49.4199 20.0916C50.6869 18.048 52.4443 15.9534 54.6922 13.8077C54.6922 13.7873 54.7433 13.6034 54.8455 13.256C54.9681 12.8882 55.0805 12.5203 55.1827 12.1525C55.5301 11.049 55.7957 10.344 55.9796 10.0374L57.4816 10.2827C57.4816 10.6709 57.3999 11.1307 57.2364 11.662C58.3808 10.8038 59.5865 10.0579 60.8534 9.42438C62.1409 8.77046 63.0809 8.44349 63.6735 8.44349C64.2866 8.44349 64.777 8.63763 65.1448 9.0259C65.5127 9.39373 65.6966 9.94548 65.6966 10.6811C65.6966 11.3964 65.3492 12.224 64.6544 13.164C63.98 14.104 63.132 14.9521 62.1102 15.7082C60.2506 17.0978 58.6669 18.0991 57.359 18.7122C59.4843 19.0392 61.0374 19.4785 62.0182 20.0303C62.9991 20.5616 63.7144 21.3688 64.1639 22.4518H66.1257ZM51.2284 23.1569C52.6589 20.8477 53.6092 18.4772 54.0792 16.0454C52.9757 17.2511 51.9743 18.6305 51.0752 20.1835C50.176 21.7366 49.7265 22.8605 49.7265 23.5553C49.7265 23.9845 49.8695 24.199 50.1556 24.199C50.4621 24.199 50.8197 23.8516 51.2284 23.1569ZM58.3399 29.7166C59.3412 29.0422 60.1382 28.2861 60.7308 27.4482C61.3234 26.6104 61.6198 25.8236 61.6198 25.088C61.6198 24.7406 61.5687 24.3932 61.4665 24.0458C58.4012 24.4136 55.8775 25.2208 53.8952 26.4674C51.913 27.6935 50.9219 28.8685 50.9219 29.9924C50.9219 30.4829 51.1161 30.8711 51.5043 31.1572C51.8926 31.4638 52.4239 31.617 53.0983 31.617C54.7535 31.617 56.5007 30.9835 58.3399 29.7166ZM76.0877 18.8961C76.619 19.7748 76.8846 20.7455 76.8846 21.8081C76.8846 23.4634 76.3124 24.9449 75.1681 26.2528C74.0237 27.5402 72.675 28.1839 71.1219 28.1839C69.9367 28.1839 69.0069 27.8467 68.3325 27.1724C67.6786 26.4776 67.3516 25.5273 67.3516 24.3217C67.3516 22.3803 68.1077 20.6433 69.6199 19.1107C71.1321 17.5576 72.8282 16.7811 74.7083 16.7811C75.0557 16.7811 75.3009 16.7913 75.4439 16.8117L75.5359 17.8233C73.9011 17.8233 72.5421 18.2933 71.4591 19.2333C70.376 20.1733 69.8345 21.379 69.8345 22.8503C69.8345 23.729 70.049 24.4443 70.4782 24.996C70.9073 25.5273 71.5306 25.793 72.348 25.793C73.1859 25.793 73.85 25.4252 74.3404 24.6895C74.8309 23.9538 75.0761 23.0955 75.0761 22.1147C75.0761 21.1133 74.882 20.204 74.4937 19.3866L76.0877 18.8961ZM86.2354 18.8961C86.7667 19.7748 87.0324 20.7455 87.0324 21.8081C87.0324 23.4634 86.4602 24.9449 85.3158 26.2528C84.1715 27.5402 82.8227 28.1839 81.2697 28.1839C80.0844 28.1839 79.1546 27.8467 78.4803 27.1724C77.8263 26.4776 77.4994 25.5273 77.4994 24.3217C77.4994 22.3803 78.2555 20.6433 79.7677 19.1107C81.2799 17.5576 82.976 16.7811 84.856 16.7811C85.2034 16.7811 85.4487 16.7913 85.5917 16.8117L85.6837 17.8233C84.0489 17.8233 82.6899 18.2933 81.6068 19.2333C80.5238 20.1733 79.9822 21.379 79.9822 22.8503C79.9822 23.729 80.1968 24.4443 80.626 24.996C81.0551 25.5273 81.6784 25.793 82.4958 25.793C83.3336 25.793 83.9978 25.4252 84.4882 24.6895C84.9787 23.9538 85.2239 23.0955 85.2239 22.1147C85.2239 21.1133 85.0297 20.204 84.6415 19.3866L86.2354 18.8961ZM100.031 24.8734L100.797 25.5478C99.6119 27.4891 98.3552 28.4598 97.0269 28.4598C96.2095 28.4598 95.3716 27.857 94.5134 26.6513C93.6551 25.4456 93.2259 24.4545 93.2259 23.678C93.2259 23.1875 93.9616 22.6971 95.4329 22.2066C95.9847 22.0227 96.4854 21.7468 96.9349 21.379C97.4049 20.9907 97.64 20.5922 97.64 20.1835C97.64 19.7748 97.5276 19.4683 97.3028 19.2639C97.078 19.0392 96.7919 18.9268 96.4445 18.9268C94.1966 19.1311 91.8466 22.1555 89.3943 28L87.5245 27.3563C87.5245 26.4776 88.7098 22.9218 91.0802 16.6891C93.4712 10.4564 95.1673 6.68606 96.1686 5.37821L97.6706 5.92996C94.9118 10.7322 92.6027 16.3111 90.7431 22.6664C92.337 20.2755 93.7062 18.6815 94.8505 17.8846C95.9949 17.0876 97.0882 16.6891 98.1304 16.6891C98.7639 16.6891 99.2646 16.8832 99.6324 17.2715C100.021 17.6598 100.215 18.1604 100.215 18.7735C100.215 19.3661 100.062 19.9077 99.755 20.3981C99.4689 20.8885 99.05 21.3177 98.4982 21.6855C97.7013 22.2168 96.7204 22.7379 95.5556 23.2488C95.7395 24.2093 96.0562 24.9347 96.5058 25.4252C96.9554 25.9156 97.4663 26.1608 98.0384 26.1608C98.345 26.1608 99.0091 25.7317 100.031 24.8734ZM110.119 24.383L110.825 24.9347C110.191 25.8134 109.323 26.5491 108.219 27.1417C107.116 27.7139 106.043 28 105 28C103.958 28 103.12 27.6935 102.487 27.0804C101.853 26.4674 101.537 25.6602 101.537 24.6588C101.537 22.7788 102.528 20.9294 104.51 19.1107C106.513 17.2919 108.536 16.3826 110.579 16.3826C111.928 16.3826 112.602 16.9139 112.602 17.9765C112.602 19.08 111.887 20.1937 110.457 21.3177C109.047 22.4416 107.054 23.4634 104.479 24.383C104.663 24.853 104.949 25.2208 105.338 25.4865C105.726 25.7521 106.124 25.885 106.533 25.885C107.412 25.885 108.607 25.3843 110.119 24.383ZM104.326 23.4634C105.981 22.8912 107.402 22.176 108.587 21.3177C109.772 20.4594 110.365 19.6726 110.365 18.9574C110.365 18.6918 110.263 18.4568 110.058 18.2524C109.854 18.048 109.619 17.9459 109.353 17.9459C108.393 17.9459 107.351 18.5487 106.227 19.7544C105.123 20.9396 104.49 22.176 104.326 23.4634ZM121.794 17.1489C122.305 17.1489 122.724 17.3226 123.051 17.67C123.378 18.0174 123.541 18.467 123.541 19.0187C123.541 20.1222 122.908 21.287 121.641 22.5131L120.905 21.9307C121.191 21.2972 121.334 20.8375 121.334 20.5514C121.334 19.9996 121.028 19.7237 120.415 19.7237C119.801 19.7237 119.219 20.112 118.667 20.8885C118.116 21.6651 117.462 22.8708 116.706 24.5056C115.97 26.12 115.408 27.2643 115.02 27.9387L113.272 27.1724C114.396 24.618 115.04 23.116 115.204 22.6664C115.755 21.0725 116.031 19.0494 116.031 16.5971L117.748 16.1374C117.686 17.4656 117.594 18.4976 117.472 19.2333C117.349 19.9485 117.053 21.1235 116.583 22.7584C118.647 19.0187 120.384 17.1489 121.794 17.1489ZM130.36 15.0032C129.216 15.0032 128.644 14.5434 128.644 13.6238C128.644 13.1129 128.787 12.6838 129.073 12.3364C129.359 11.989 129.727 11.8153 130.176 11.8153C130.626 11.8153 130.994 11.9481 131.28 12.2138C131.566 12.4794 131.709 12.8268 131.709 13.256C131.709 13.6851 131.587 14.0836 131.341 14.4514C131.096 14.8193 130.769 15.0032 130.36 15.0032ZM129.962 24.0458L130.575 24.5669C130.085 25.5069 129.431 26.3141 128.613 26.9885C127.816 27.6424 127.091 27.9693 126.437 27.9693C125.292 27.9693 124.72 27.1724 124.72 25.5784C124.72 23.5962 125.538 21.0112 127.173 17.8233C127.54 17.1285 127.755 16.7198 127.816 16.5971L129.134 17.3941C128.705 18.1707 128.174 19.407 127.54 21.1031C126.927 22.7992 126.621 23.8925 126.621 24.383C126.621 24.853 126.723 25.1902 126.927 25.3945C127.132 25.5989 127.377 25.701 127.663 25.701C128.215 25.701 128.981 25.1493 129.962 24.0458ZM138.869 15.9534L137.888 19.6624L141.873 19.2026L140.984 20.6433L137.551 21.1031C137.285 22.2066 136.836 23.8721 136.202 26.0995C134.833 30.9222 134.148 33.9773 134.148 35.2647L132.187 36.2763C132.187 34.5188 132.943 31.1266 134.455 26.0995C135.231 23.586 135.712 21.9716 135.896 21.2564C135.18 21.4403 134.526 21.5323 133.934 21.5323C132.769 21.5323 132.187 21.0725 132.187 20.1529C132.187 19.642 132.575 19.0289 133.351 18.3137C134.475 17.2715 135.814 16.3519 137.367 15.5549C138.573 11.4475 139.441 8.87263 139.972 7.83043C140.688 6.4204 141.342 5.52125 141.934 5.13299C142.813 4.58123 143.722 4.30536 144.662 4.30536C145.602 4.30536 146.267 4.57102 146.655 5.10233C147.043 5.63365 147.217 6.25692 147.176 6.97216C147.074 9.54699 144.305 12.5408 138.869 15.9534ZM143.773 6.91085C142.629 6.91085 141.781 7.4626 141.229 8.5661C140.8 9.42438 140.422 10.4564 140.095 11.662C139.768 12.8677 139.533 13.6953 139.39 14.1449C140.514 13.4501 141.72 12.5101 143.007 11.3249C144.295 10.1396 144.959 9.10764 145 8.22892C145.04 7.35021 144.632 6.91085 143.773 6.91085ZM136.325 19.8157L136.999 17.1182C136.223 17.4452 135.61 17.7824 135.16 18.1298C134.731 18.4772 134.516 18.7735 134.516 19.0187C134.516 19.55 135.119 19.8157 136.325 19.8157ZM155.355 26.0689L155.447 26.8658C155.365 26.9272 154.415 27.295 152.596 27.9693C152.351 29.3181 152.034 30.6464 151.646 31.9542C151.278 33.2825 150.9 34.2838 150.512 34.9582C150.144 35.653 149.704 36.3376 149.193 37.0119C148.172 38.3607 146.792 39.035 145.055 39.035C144.197 39.035 143.512 38.7694 143.002 38.238C142.491 37.7067 142.235 36.9813 142.235 36.0617C142.235 32.5264 145.198 29.6859 151.125 27.5402L152.78 21.7162C151.022 24.3523 149.439 25.9769 148.029 26.59C147.334 26.9169 146.598 27.0804 145.822 27.0804C145.066 27.0804 144.452 26.8352 143.982 26.3447C143.533 25.8543 143.308 25.1391 143.308 24.199C143.308 23.259 143.625 21.9512 144.258 20.2755C144.912 18.5794 145.638 17.1591 146.435 16.0147L147.937 16.6585C147.875 16.7198 147.589 17.2613 147.078 18.2831C146.179 20.1427 145.73 21.522 145.73 22.4212C145.73 23.3203 145.903 23.9232 146.251 24.2297C146.598 24.5362 147.109 24.6895 147.783 24.6895C148.458 24.6895 149.214 24.291 150.052 23.494C150.91 22.6766 152.228 21.0725 154.006 18.6815L155.109 19.3252C154.946 19.9996 154.578 21.2257 154.006 23.0036C153.454 24.761 153.076 26.1097 152.872 27.0498L155.355 26.0689ZM150.941 28.4598C149.653 29.0524 148.519 29.7268 147.538 30.4829C145.699 31.8725 144.779 33.2212 144.779 34.5291C144.779 35.0195 144.922 35.418 145.209 35.7245C145.495 36.031 145.852 36.1843 146.281 36.1843C148.325 36.1843 149.878 33.6095 150.941 28.4598Z" fill="black"/>
</svg>
